# xmcd CD database file generated by OrangeCD 6.4
#
# Track frame offsets:
#	150
#	12317
#	43472
#	64207
#	83202
#	104892
#	125910
#	140774
#	153125
#	162286
#
# Disc length: 2306 seconds
#
# Revision: 0
# Processed by: cddbd v1.5.2PL0 Copyright (c) Steve Scherf et al.
# Submitted via: OrangeCD 6.4
#
DISCID=9409000a
DTITLE=The Alex Tintinalli Band - Nothing to Lose
DYEAR=2007
DGENRE=
TTITLE0=Love Is Gone
TTITLE1=Nothing To Lose
TTITLE2=Breakdown
TTITLE3=Voodoo Thing
TTITLE4=Don't Know What's Taken Me
TTITLE5=You Will Be Mine
TTITLE6=Down and Dirty
TTITLE7=No Way Out
TTITLE8=Idel Time
TTITLE9=Life By The Drop
EXTD=
EXTT0=
EXTT1=
EXTT2=
EXTT3=
EXTT4=
EXTT5=
EXTT6=
EXTT7=
EXTT8=
EXTT9=
PLAYORDER=
